<?xml version="1.0" encoding="UTF-8"?>
<svg version="1.1" xmlns="http://www.w3.org/2000/svg" width="512" height="512">
<path d="M0 0 C5.71783572 1.56614949 10.41292271 4.38787337 15.4375 7.4375 C16.31913818 7.97028564 17.20077637 8.50307129 18.10913086 9.05200195 C43.92401956 24.86452729 68.69108859 45.81208035 87 70 C87.41523926 70.53882812 87.83047852 71.07765625 88.25830078 71.6328125 C95.94337664 81.62929469 102.68728061 92.09010449 109 103 C109.39429199 103.67724121 109.78858398 104.35448242 110.19482422 105.05224609 C125.13487689 131.02691336 134.52929683 160.437988 139 190 C139.17660156 191.12245117 139.35320312 192.24490234 139.53515625 193.40136719 C141.1920586 205.01447743 141.39873513 216.53179945 141.375 228.25 C141.37418427 229.76802216 141.37418427 229.76802216 141.37335205 231.31671143 C141.3326051 247.85117395 140.40886907 263.77064864 137 280 C136.79101074 281.01529785 136.58202148 282.0305957 136.36669922 283.07666016 C127.41907796 325.18744996 107.71607768 364.87693005 79 397 C78.27683594 397.83273437 77.55367188 398.66546875 76.80859375 399.5234375 C67.08601301 410.58891613 56.69126439 421.01975344 45 430 C44.06929688 430.72445313 43.13859375 431.44890625 42.1796875 432.1953125 C8.99785585 457.59047432 -28.83271171 474.58428321 -70 482 C-70.87285645 482.16371094 -71.74571289 482.32742188 -72.64501953 482.49609375 C-97.01139053 486.91058881 -126.11420287 488.38982886 -150 481 C-150.68143066 480.79632813 -151.36286133 480.59265625 -152.06494141 480.3828125 C-169.16563865 475.09973655 -183.82067393 465.93959207 -197 454 C-197.87398437 453.30777344 -198.74796875 452.61554688 -199.6484375 451.90234375 C-220.73490816 434.84401948 -233.13901841 404.28439282 -236.25 378.0625 C-239.49621566 346.33725338 -231.27601173 314.20265878 -211.46875 288.96875 C-189.30083251 262.31112771 -160.05518379 245.51956201 -125.20703125 242.16162109 C-121.76452021 241.90952571 -118.31980346 241.81891382 -114.87011719 241.71484375 C-73.75248927 240.45516284 -35.73700118 224.92494808 -7 195 C10.54621024 175.74224083 23.73912309 151.58699227 29 126 C29.14663086 125.3188916 29.29326172 124.6377832 29.44433594 123.93603516 C37.63708429 84.84869705 28.92726975 44.74699949 7.39453125 11.453125 C5.79384305 9.05775472 4.07663477 6.85636047 2.19921875 4.671875 C0 2 0 2 0 0 Z " fill="#FE9A40" transform="translate(371,27)"/>
<path d="M0 0 C2.47474085 -0.00437362 4.94769068 -0.04087316 7.42211914 -0.07861328 C39.70553255 -0.30567718 70.16071129 12.72842773 93.17407227 35.37060547 C116.37980036 58.99072156 127.8505965 90.05497655 128.20141602 122.83154297 C127.89107264 151.64914234 117.32906574 179.83381771 98.17407227 201.37060547 C97.48958008 202.19818359 96.80508789 203.02576172 96.09985352 203.87841797 C76.1552194 227.39907706 45.69618201 240.43801436 15.43188477 243.20898438 C12.06775856 243.44979877 8.70244553 243.54916048 5.33178711 243.65576172 C-36.12548547 244.9942664 -72.52166891 260.92825859 -101.82592773 290.37060547 C-130.28763518 321.08257968 -141.90732703 359.88687982 -140.95776367 401.15185547 C-139.83004496 428.68489902 -129.11995405 459.64434306 -111.02514648 480.69873047 C-108.82592773 483.37060547 -108.82592773 483.37060547 -108.82592773 485.37060547 C-128.59496074 478.13233748 -146.22091449 464.17181341 -161.82592773 450.37060547 C-162.66124023 449.64615234 -163.49655273 448.92169922 -164.35717773 448.17529297 C-175.41783173 438.4433539 -185.83875794 428.05858276 -194.82592773 416.37060547 C-195.2711377 415.80712402 -195.71634766 415.24364258 -196.17504883 414.66308594 C-208.441412 399.13620148 -218.4537531 382.28402146 -226.82592773 364.37060547 C-227.11773926 363.75894531 -227.40955078 363.14728516 -227.71020508 362.51708984 C-236.76545713 343.42900149 -242.89905986 323.09700986 -246.82592773 302.37060547 C-246.98963867 301.56123535 -247.15334961 300.75186523 -247.32202148 299.91796875 C-252.79162331 271.93146271 -252.67070284 238.27638708 -246.82592773 210.37060547 C-246.62725098 209.39575195 -246.42857422 208.42089844 -246.22387695 207.41650391 C-236.13691086 159.19551695 -214.10004222 114.59580611 -179.6081543 79.19970703 C-177.8339394 77.37882785 -176.0761126 75.54306618 -174.31811523 73.70654297 C-167.21924879 66.36949283 -159.80774846 59.80024171 -151.61889648 53.70605469 C-149.78185201 52.33777674 -147.96003842 50.95075018 -146.13842773 49.56201172 C-137.71170098 43.19600769 -129.01689191 37.56499166 -119.82592773 32.37060547 C-119.19557617 32.00757324 -118.56522461 31.64454102 -117.91577148 31.27050781 C-91.83783783 16.34154933 -62.48895739 6.83837675 -32.82592773 2.37060547 C-31.66939697 2.19400391 -30.51286621 2.01740234 -29.32128906 1.83544922 C-19.52959 0.4670915 -9.88316664 -0.00194264 0 0 Z " fill="#4096CB" transform="translate(249.825927734375,-0.37060546875)"/>
<path d="M0 0 C9.41453313 5.1926312 16.38424007 12.57574006 20.32421875 22.69140625 C23.29903795 33.08491038 21.76425304 44.88911779 16.6328125 54.34375 C11.29908493 62.78742531 4.35150684 67.90754952 -4.86328125 71.62890625 C-17.80113865 74.00084677 -27.05749615 73.52527903 -38.36328125 66.56640625 C-46.65133471 60.61676787 -52.06820971 53.28366881 -54.61328125 43.31640625 C-56.2827536 31.61872351 -54.64140285 21.24101472 -47.59375 11.53515625 C-42.97046011 6.0293119 -38.19470722 2.19878259 -31.61328125 -0.68359375 C-30.87851563 -1.04710938 -30.14375 -1.410625 -29.38671875 -1.78515625 C-20.49023515 -4.66711573 -8.45622436 -3.71659478 0 0 Z " fill="#F2F3F3" transform="translate(272.61328125,87.68359375)"/>
<path d="M0 0 C7.20149158 6.40423026 12.40506903 15.57606972 13.390625 25.25390625 C13.67848738 35.32908945 11.46109059 45.3116875 4.83203125 53.14453125 C4.27773438 53.72847656 3.7234375 54.31242187 3.15234375 54.9140625 C2.28996094 55.83638672 2.28996094 55.83638672 1.41015625 56.77734375 C-6.951462 64.87874567 -16.63471389 67.73277318 -28.04760742 67.64648438 C-37.62177833 67.15306422 -45.72079362 63.07668617 -52.84765625 56.6640625 C-62.14523252 46.25738449 -63.57790022 35.41589761 -63.01367188 22.04589844 C-62.2826464 12.65867125 -56.52065189 6.10660245 -49.84765625 -0.0859375 C-34.42199349 -12.1864574 -15.71101306 -11.96787056 0 0 Z " fill="#F4F3F2" transform="translate(281.84765625,345.0859375)"/>
</svg>
